<svg width="155" height="50" viewBox="0 0 155 50" fill="none" xmlns="http://www.w3.org/2000/svg">
<g filter="url(#filter0_d_8026_804)">
<path d="M150.356 39.2297C150.356 41.5212 148.471 43.3774 146.141 43.3774H8.22C5.8907 43.3774 4 41.5212 4 39.2297V6.15311C4 3.86267 5.8907 2 8.22 2H146.14C148.471 2 150.354 3.86267 150.354 6.15311L150.356 39.2297Z" fill="#FAFBF7" style="fill:#FAFBF7;fill:color(display-p3 0.9804 0.9843 0.9686);fill-opacity:1;"/>
<path d="M36.2067 22.4565C36.1749 18.9917 39.0998 17.3061 39.2335 17.2277C37.577 14.8594 35.0095 14.5359 34.1073 14.5101C31.9508 14.2875 29.8591 15.7753 28.7606 15.7753C27.6402 15.7753 25.9486 14.5316 24.1255 14.5681C21.7794 14.6036 19.5846 15.9355 18.3809 18.0038C15.8967 22.221 17.7494 28.4184 20.1295 31.8272C21.3201 33.4967 22.7113 35.3608 24.5322 35.2952C26.3137 35.2232 26.9791 34.1815 29.129 34.1815C31.2591 34.1815 31.884 35.2952 33.7411 35.2533C35.653 35.2232 36.8568 33.5763 38.0057 31.8917C39.3815 29.9782 39.9341 28.0938 39.956 27.997C39.9111 27.982 36.2428 26.6092 36.2067 22.4565Z" fill="#152B12" style="fill:#152B12;fill:color(display-p3 0.0824 0.1686 0.0706);fill-opacity:1;"/>
<path d="M32.6985 12.2676C33.6567 11.0926 34.3123 9.49412 34.1303 7.87195C32.7435 7.93215 31.0091 8.81257 30.0104 9.96175C29.1268 10.9744 28.3375 12.6342 28.5414 14.1951C30.0992 14.309 31.6987 13.4243 32.6985 12.2676Z" fill="#152B12" style="fill:#152B12;fill:color(display-p3 0.0824 0.1686 0.0706);fill-opacity:1;"/>
<path d="M56.9511 11.9484C56.9511 13.2137 56.5641 14.1661 55.7912 14.8057C55.0753 15.3959 54.0579 15.6915 52.7402 15.6915C52.0868 15.6915 51.5277 15.6636 51.0596 15.6077V8.69436C51.6702 8.59761 52.328 8.54816 53.0384 8.54816C54.2936 8.54816 55.2398 8.81583 55.8778 9.35118C56.5926 9.95641 56.9511 10.8218 56.9511 11.9484ZM55.7397 11.9796C55.7397 11.1593 55.5182 10.5305 55.0753 10.0919C54.6324 9.65433 53.9856 9.43503 53.1338 9.43503C52.772 9.43503 52.4639 9.45868 52.2085 9.50813V14.7638C52.3499 14.7853 52.6086 14.795 52.9847 14.795C53.8639 14.795 54.5425 14.5553 55.0205 14.0758C55.4985 13.5964 55.7397 12.8976 55.7397 11.9796Z" fill="#152B12" style="fill:#152B12;fill:color(display-p3 0.0824 0.1686 0.0706);fill-opacity:1;"/>
<path d="M63.3741 13.0535C63.3741 13.8328 63.1472 14.4714 62.6933 14.9723C62.2175 15.4873 61.5871 15.7442 60.8 15.7442C60.0414 15.7442 59.4373 15.498 58.9867 15.0035C58.5372 14.5101 58.3125 13.8877 58.3125 13.1373C58.3125 12.3526 58.5438 11.7086 59.0086 11.2088C59.4735 10.7089 60.0984 10.4584 60.8855 10.4584C61.6441 10.4584 62.2537 10.7046 62.7152 11.198C63.1537 11.6775 63.3741 12.2967 63.3741 13.0535ZM62.1824 13.09C62.1824 12.6224 62.0794 12.2214 61.8744 11.8871C61.6332 11.4829 61.29 11.2808 60.8439 11.2808C60.3823 11.2808 60.0315 11.4829 59.7903 11.8871C59.5842 12.2214 59.4823 12.6288 59.4823 13.1104C59.4823 13.5781 59.5853 13.979 59.7903 14.3134C60.0392 14.7176 60.3856 14.9197 60.8329 14.9197C61.2714 14.9197 61.6156 14.7143 61.8634 14.3026C62.0761 13.9618 62.1824 13.5576 62.1824 13.09Z" fill="#152B12" style="fill:#152B12;fill:color(display-p3 0.0824 0.1686 0.0706);fill-opacity:1;"/>
<path d="M71.9867 10.5616L70.3697 15.6292H69.3172L68.6474 13.4286C68.4775 12.8793 68.3393 12.3332 68.2319 11.7914H68.2111C68.1113 12.3483 67.9732 12.8933 67.7956 13.4286L67.0841 15.6292H66.0196L64.499 10.5616H65.6797L66.2641 12.9707C66.4055 13.5404 66.5217 14.0833 66.6149 14.5972H66.6357C66.7212 14.1736 66.8626 13.634 67.0622 12.9814L67.7956 10.5627H68.7318L69.4345 12.9298C69.6045 13.5071 69.7426 14.0629 69.8489 14.5982H69.8807C69.9586 14.0769 70.0759 13.5211 70.2316 12.9298L70.8586 10.5627H71.9867V10.5616Z" fill="#152B12" style="fill:#152B12;fill:color(display-p3 0.0824 0.1686 0.0706);fill-opacity:1;"/>
<path d="M77.943 15.6292H76.7941V12.7267C76.7941 11.8323 76.4476 11.3851 75.7526 11.3851C75.4116 11.3851 75.1365 11.5076 74.9227 11.7538C74.7111 12 74.6037 12.2902 74.6037 12.6224V15.6281H73.4547V12.0097C73.4547 11.5646 73.4405 11.0819 73.4131 10.5595H74.4228L74.4765 11.3518H74.5083C74.642 11.1056 74.8416 10.9024 75.1036 10.7401C75.4149 10.5509 75.7635 10.4552 76.145 10.4552C76.6274 10.4552 77.0287 10.6079 77.3477 10.9142C77.7445 11.2894 77.943 11.8495 77.943 12.5934V15.6292V15.6292Z" fill="#152B12" style="fill:#152B12;fill:color(display-p3 0.0824 0.1686 0.0706);fill-opacity:1;"/>
<path d="M81.1112 15.6292H79.9634V8.23639H81.1112V15.6292Z" fill="#152B12" style="fill:#152B12;fill:color(display-p3 0.0824 0.1686 0.0706);fill-opacity:1;"/>
<path d="M87.8756 13.0535C87.8756 13.8328 87.6486 14.4714 87.1948 14.9723C86.719 15.4873 86.0875 15.7442 85.3015 15.7442C84.5417 15.7442 83.9377 15.498 83.4882 15.0035C83.0387 14.5101 82.814 13.8877 82.814 13.1373C82.814 12.3526 83.0453 11.7086 83.5101 11.2088C83.9749 10.7089 84.5998 10.4584 85.3859 10.4584C86.1456 10.4584 86.7541 10.7046 87.2167 11.198C87.6552 11.6775 87.8756 12.2967 87.8756 13.0535ZM86.6828 13.09C86.6828 12.6224 86.5797 12.2214 86.3747 11.8871C86.1346 11.4829 85.7904 11.2808 85.3453 11.2808C84.8827 11.2808 84.5319 11.4829 84.2918 11.8871C84.0857 12.2214 83.9837 12.6288 83.9837 13.1104C83.9837 13.5781 84.0868 13.979 84.2918 14.3134C84.5406 14.7176 84.8871 14.9197 85.3344 14.9197C85.7729 14.9197 86.116 14.7143 86.3638 14.3026C86.5775 13.9618 86.6828 13.5576 86.6828 13.09Z" fill="#152B12" style="fill:#152B12;fill:color(display-p3 0.0824 0.1686 0.0706);fill-opacity:1;"/>
<path d="M93.436 15.6292H92.4044L92.3189 15.0454H92.2871C91.9341 15.5109 91.4309 15.7442 90.7775 15.7442C90.2897 15.7442 89.895 15.5905 89.5979 15.2852C89.3282 15.0078 89.1934 14.6627 89.1934 14.2532C89.1934 13.634 89.4565 13.162 89.986 12.8352C90.5144 12.5084 91.2577 12.3483 92.2148 12.3558V12.2612C92.2148 11.5936 91.8574 11.2604 91.1415 11.2604C90.6317 11.2604 90.1822 11.3861 89.7941 11.6355L89.5606 10.8959C90.0408 10.6046 90.6339 10.4584 91.3333 10.4584C92.684 10.4584 93.3615 11.1572 93.3615 12.5547V14.4209C93.3615 14.9272 93.3867 15.3303 93.436 15.6292ZM92.2432 13.8877V13.1061C90.9759 13.0846 90.3423 13.4254 90.3423 14.1274C90.3423 14.3918 90.4146 14.5896 90.5626 14.7219C90.7106 14.8541 90.8992 14.9197 91.1239 14.9197C91.3761 14.9197 91.6118 14.8412 91.8267 14.6853C92.0426 14.5284 92.1753 14.3295 92.2246 14.0855C92.2367 14.0306 92.2432 13.964 92.2432 13.8877Z" fill="#152B12" style="fill:#152B12;fill:color(display-p3 0.0824 0.1686 0.0706);fill-opacity:1;"/>
<path d="M99.9641 15.6292H98.9445L98.8908 14.8154H98.859C98.5334 15.4346 97.9787 15.7442 97.1992 15.7442C96.5765 15.7442 96.058 15.5045 95.6469 15.025C95.2358 14.5456 95.0308 13.9231 95.0308 13.1588C95.0308 12.3386 95.2533 11.6742 95.7006 11.1668C96.1336 10.6938 96.6642 10.4573 97.2957 10.4573C97.9897 10.4573 98.4753 10.6863 98.7516 11.1453H98.7735V8.23639H99.9235V14.2639C99.9235 14.7573 99.9367 15.2121 99.9641 15.6292ZM98.7735 13.4921V12.6471C98.7735 12.5009 98.7625 12.3827 98.7417 12.2924C98.677 12.0215 98.5378 11.7936 98.3262 11.6097C98.1124 11.4259 97.8548 11.3335 97.5577 11.3335C97.1291 11.3335 96.7936 11.5001 96.5469 11.8344C96.3025 12.1687 96.1786 12.5955 96.1786 13.1169C96.1786 13.6178 96.2959 14.0242 96.5316 14.337C96.7804 14.6703 97.1159 14.8369 97.5358 14.8369C97.9129 14.8369 98.2144 14.6982 98.4435 14.4198C98.665 14.1629 98.7735 13.8533 98.7735 13.4921Z" fill="#152B12" style="fill:#152B12;fill:color(display-p3 0.0824 0.1686 0.0706);fill-opacity:1;"/>
<path d="M109.791 13.0535C109.791 13.8328 109.564 14.4714 109.11 14.9723C108.634 15.4873 108.005 15.7442 107.217 15.7442C106.459 15.7442 105.855 15.498 105.403 15.0035C104.954 14.5101 104.729 13.8877 104.729 13.1373C104.729 12.3526 104.96 11.7086 105.425 11.2088C105.89 10.7089 106.515 10.4584 107.303 10.4584C108.061 10.4584 108.671 10.7046 109.132 11.198C109.57 11.6775 109.791 12.2967 109.791 13.0535ZM108.6 13.09C108.6 12.6224 108.497 12.2214 108.292 11.8871C108.05 11.4829 107.708 11.2808 107.26 11.2808C106.8 11.2808 106.449 11.4829 106.207 11.8871C106.001 12.2214 105.899 12.6288 105.899 13.1104C105.899 13.5781 106.002 13.979 106.207 14.3134C106.456 14.7176 106.802 14.9197 107.249 14.9197C107.688 14.9197 108.033 14.7143 108.281 14.3026C108.493 13.9618 108.6 13.5576 108.6 13.09Z" fill="#152B12" style="fill:#152B12;fill:color(display-p3 0.0824 0.1686 0.0706);fill-opacity:1;"/>
<path d="M115.968 15.6292H114.82V12.7267C114.82 11.8323 114.474 11.3851 113.777 11.3851C113.436 11.3851 113.161 11.5076 112.949 11.7538C112.736 12 112.63 12.2902 112.63 12.6224V15.6281H111.48V12.0097C111.48 11.5646 111.466 11.0819 111.439 10.5595H112.448L112.501 11.3518H112.533C112.668 11.1056 112.867 10.9024 113.128 10.7401C113.441 10.5509 113.788 10.4552 114.171 10.4552C114.652 10.4552 115.053 10.6079 115.372 10.9142C115.77 11.2894 115.968 11.8495 115.968 12.5934V15.6292V15.6292Z" fill="#152B12" style="fill:#152B12;fill:color(display-p3 0.0824 0.1686 0.0706);fill-opacity:1;"/>
<path d="M123.7 11.4055H122.435V13.8672C122.435 14.4929 122.66 14.8057 123.105 14.8057C123.311 14.8057 123.482 14.7885 123.617 14.753L123.646 15.6077C123.42 15.6915 123.121 15.7334 122.754 15.7334C122.3 15.7334 121.947 15.598 121.692 15.3271C121.435 15.0562 121.308 14.6004 121.308 13.9608V11.4055H120.553V10.5616H121.308V9.63281L122.434 9.29956V10.5605H123.699V11.4055H123.7Z" fill="#152B12" style="fill:#152B12;fill:color(display-p3 0.0824 0.1686 0.0706);fill-opacity:1;"/>
<path d="M129.782 15.6292H128.632V12.7482C128.632 11.8398 128.286 11.3851 127.592 11.3851C127.059 11.3851 126.695 11.6484 126.495 12.1752C126.462 12.2859 126.442 12.4214 126.442 12.5805V15.6281H125.294V8.23639H126.442V11.2905H126.464C126.825 10.7347 127.344 10.4573 128.016 10.4573C128.492 10.4573 128.885 10.61 129.198 10.9164C129.587 11.298 129.782 11.8656 129.782 12.6159V15.6292V15.6292Z" fill="#152B12" style="fill:#152B12;fill:color(display-p3 0.0824 0.1686 0.0706);fill-opacity:1;"/>
<path d="M136.056 12.8557C136.056 13.0578 136.041 13.2276 136.014 13.3663H132.568C132.583 13.8672 132.748 14.2489 133.067 14.5133C133.359 14.7498 133.735 14.8681 134.195 14.8681C134.705 14.8681 135.17 14.7885 135.588 14.6283L135.768 15.4109C135.278 15.6195 134.701 15.7238 134.034 15.7238C133.234 15.7238 132.603 15.4926 132.147 15.0304C131.689 14.5681 131.462 13.9479 131.462 13.1696C131.462 12.4052 131.673 11.7688 132.1 11.2614C132.545 10.7196 133.147 10.4487 133.907 10.4487C134.65 10.4487 135.215 10.7196 135.596 11.2614C135.904 11.6914 136.056 12.2236 136.056 12.8557ZM134.96 12.5643C134.969 12.23 134.893 11.9419 134.738 11.699C134.538 11.3861 134.234 11.2292 133.823 11.2292C133.448 11.2292 133.143 11.3818 132.909 11.6882C132.718 11.9322 132.605 12.2236 132.568 12.5643H134.96Z" fill="#152B12" style="fill:#152B12;fill:color(display-p3 0.0824 0.1686 0.0706);fill-opacity:1;"/>
<path d="M61.9888 35.0555H59.4991L58.1353 30.8533H53.3949L52.0958 35.0555H49.6719L54.3684 20.7494H57.2692L61.9888 35.0555ZM57.7242 29.0903L56.4908 25.3547C56.3604 24.973 56.1159 24.0743 55.7552 22.6596H55.7114C55.5678 23.2681 55.3364 24.1668 55.0185 25.3547L53.8071 29.0903H57.7242V29.0903Z" fill="#152B12" style="fill:#152B12;fill:color(display-p3 0.0824 0.1686 0.0706);fill-opacity:1;"/>
<path d="M74.0664 29.7708C74.0664 31.5252 73.583 32.9119 72.616 33.93C71.7499 34.8362 70.6745 35.2888 69.3907 35.2888C68.005 35.2888 67.0096 34.8007 66.4033 33.8246H66.3595V39.2587H64.0222V28.1357C64.0222 27.0328 63.9926 25.9008 63.9355 24.7398H65.9911L66.1216 26.3749H66.1654C66.9449 25.1429 68.1278 24.528 69.7152 24.528C70.9562 24.528 71.9922 25.0085 72.821 25.9707C73.652 26.9339 74.0664 28.2002 74.0664 29.7708ZM71.6853 29.8546C71.6853 28.8506 71.455 28.0228 70.9924 27.3714C70.487 26.692 69.8084 26.3523 68.9577 26.3523C68.381 26.3523 67.857 26.5415 67.3889 26.9145C66.9197 27.2908 66.6127 27.782 66.4691 28.3905C66.3967 28.6743 66.3606 28.9065 66.3606 29.0892V30.8092C66.3606 31.5596 66.5952 32.1928 67.0644 32.7098C67.5336 33.2269 68.1431 33.4849 68.893 33.4849C69.7733 33.4849 70.4585 33.1517 70.9486 32.4873C71.4397 31.8219 71.6853 30.9447 71.6853 29.8546Z" fill="#152B12" style="fill:#152B12;fill:color(display-p3 0.0824 0.1686 0.0706);fill-opacity:1;"/>
<path d="M86.1664 29.7708C86.1664 31.5252 85.6829 32.9119 84.7149 33.93C83.8499 34.8362 82.7745 35.2888 81.4907 35.2888C80.105 35.2888 79.1095 34.8007 78.5044 33.8246H78.4605V39.2587H76.1232V28.1357C76.1232 27.0328 76.0936 25.9008 76.0366 24.7398H78.0922L78.2226 26.3749H78.2665C79.0449 25.1429 80.2278 24.528 81.8163 24.528C83.0562 24.528 84.0922 25.0085 84.9232 25.9707C85.7509 26.9339 86.1664 28.2002 86.1664 29.7708ZM83.7852 29.8546C83.7852 28.8506 83.5539 28.0228 83.0913 27.3714C82.5859 26.692 81.9095 26.3523 81.0577 26.3523C80.4799 26.3523 79.957 26.5415 79.4878 26.9145C79.0186 27.2908 78.7127 27.782 78.5691 28.3905C78.4978 28.6743 78.4605 28.9065 78.4605 29.0892V30.8092C78.4605 31.5596 78.6951 32.1928 79.1622 32.7098C79.6314 33.2258 80.2409 33.4849 80.993 33.4849C81.8733 33.4849 82.5585 33.1517 83.0485 32.4873C83.5397 31.8219 83.7852 30.9447 83.7852 29.8546Z" fill="#152B12" style="fill:#152B12;fill:color(display-p3 0.0824 0.1686 0.0706);fill-opacity:1;"/>
<path d="M99.6946 31.0436C99.6946 32.2605 99.2637 33.2506 98.3988 34.0149C97.4483 34.8502 96.125 35.2673 94.4247 35.2673C92.8548 35.2673 91.5962 34.9706 90.6436 34.3761L91.1851 32.4658C92.2113 33.0743 93.3372 33.3796 94.5639 33.3796C95.4442 33.3796 96.1294 33.1839 96.6217 32.7948C97.1117 32.4056 97.3562 31.8832 97.3562 31.2317C97.3562 30.6512 97.1545 30.1621 96.7499 29.7654C96.3476 29.3687 95.6756 29 94.7371 28.6592C92.1828 27.7251 90.9067 26.3566 90.9067 24.557C90.9067 23.381 91.354 22.4167 92.2496 21.6664C93.142 20.9149 94.3326 20.5398 95.8214 20.5398C97.149 20.5398 98.2519 20.7666 99.1322 21.2192L98.5478 23.0875C97.7256 22.6489 96.796 22.4296 95.7556 22.4296C94.9334 22.4296 94.2909 22.6285 93.8305 23.0241C93.4413 23.3778 93.2462 23.8088 93.2462 24.3195C93.2462 24.8849 93.4687 25.3525 93.916 25.7202C94.3052 26.0599 95.0123 26.4275 96.0384 26.8242C97.2937 27.3198 98.2157 27.8992 98.8088 28.5636C99.3997 29.2258 99.6946 30.0546 99.6946 31.0436Z" fill="#152B12" style="fill:#152B12;fill:color(display-p3 0.0824 0.1686 0.0706);fill-opacity:1;"/>
<path d="M107.422 26.4598H104.846V31.4682C104.846 32.7421 105.3 33.3785 106.21 33.3785C106.628 33.3785 106.974 33.343 107.248 33.2721L107.313 35.0125C106.852 35.1813 106.246 35.2662 105.495 35.2662C104.572 35.2662 103.851 34.9899 103.33 34.4384C102.811 33.8859 102.55 32.9592 102.55 31.6574V26.4576H101.016V24.7376H102.55V22.8489L104.846 22.1695V24.7376H107.422V26.4598Z" fill="#152B12" style="fill:#152B12;fill:color(display-p3 0.0824 0.1686 0.0706);fill-opacity:1;"/>
<path d="M119.047 29.8127C119.047 31.3983 118.584 32.7002 117.661 33.7182C116.693 34.7663 115.408 35.2888 113.806 35.2888C112.263 35.2888 111.034 34.7867 110.117 33.7827C109.201 32.7786 108.743 31.5112 108.743 29.9836C108.743 28.3851 109.214 27.0758 110.16 26.0577C111.104 25.0386 112.378 24.5291 113.98 24.5291C115.523 24.5291 116.765 25.0311 117.703 26.0362C118.599 27.0113 119.047 28.2701 119.047 29.8127ZM116.622 29.8869C116.622 28.9355 116.415 28.1196 115.995 27.4391C115.505 26.6157 114.804 26.205 113.896 26.205C112.957 26.205 112.243 26.6167 111.753 27.4391C111.333 28.1207 111.126 28.9495 111.126 29.9299C111.126 30.8813 111.333 31.6972 111.753 32.3766C112.258 33.2 112.965 33.6107 113.876 33.6107C114.768 33.6107 115.468 33.1914 115.974 32.3551C116.405 31.6617 116.622 30.8372 116.622 29.8869Z" fill="#152B12" style="fill:#152B12;fill:color(display-p3 0.0824 0.1686 0.0706);fill-opacity:1;"/>
<path d="M126.644 26.7554C126.413 26.7135 126.166 26.692 125.907 26.692C125.085 26.692 124.449 26.9962 124.002 27.6057C123.613 28.1432 123.418 28.8226 123.418 29.6429V35.0555H121.081L121.103 27.9884C121.103 26.7995 121.074 25.717 121.016 24.7409H123.051L123.137 26.7146H123.202C123.448 26.0362 123.838 25.4901 124.37 25.0806C124.891 24.7118 125.453 24.528 126.06 24.528C126.276 24.528 126.471 24.5431 126.644 24.5699V26.7554Z" fill="#152B12" style="fill:#152B12;fill:color(display-p3 0.0824 0.1686 0.0706);fill-opacity:1;"/>
<path d="M137.097 29.4096C137.097 29.8202 137.07 30.1664 137.012 30.4491H130C130.027 31.4682 130.366 32.2476 131.017 32.7851C131.608 33.2656 132.372 33.5064 133.311 33.5064C134.349 33.5064 135.296 33.3441 136.148 33.0184L136.514 34.6094C135.519 35.0351 134.343 35.2468 132.987 35.2468C131.356 35.2468 130.075 34.776 129.144 33.8354C128.214 32.8947 127.748 31.6316 127.748 30.0471C127.748 28.4915 128.181 27.1962 129.048 26.1631C129.956 25.0601 131.183 24.5087 132.726 24.5087C134.242 24.5087 135.39 25.0601 136.17 26.1631C136.787 27.0392 137.097 28.1228 137.097 29.4096ZM134.868 28.8151C134.884 28.1357 134.731 27.5488 134.415 27.0532C134.01 26.4157 133.388 26.0975 132.552 26.0975C131.788 26.0975 131.166 26.4082 130.692 27.0317C130.302 27.5273 130.071 28.1217 130 28.814H134.868V28.8151Z" fill="#152B12" style="fill:#152B12;fill:color(display-p3 0.0824 0.1686 0.0706);fill-opacity:1;"/>
</g>
<defs>
<filter id="filter0_d_8026_804" x="-0.822266" y="-0.81131" width="156" height="51" filterUnits="userSpaceOnUse" color-interpolation-filters="sRGB">
<feFlood flood-opacity="0" result="BackgroundImageFix"/>
<feColorMatrix in="SourceAlpha" type="matrix" values="0 0 0 0 0 0 0 0 0 0 0 0 0 0 0 0 0 0 127 0" result="hardAlpha"/>
<feOffset dy="2"/>
<feGaussianBlur stdDeviation="2"/>
<feComposite in2="hardAlpha" operator="out"/>
<feColorMatrix type="matrix" values="0 0 0 0 0 0 0 0 0 0 0 0 0 0 0 0 0 0 0.12 0"/>
<feBlend mode="normal" in2="BackgroundImageFix" result="effect1_dropShadow_8026_804"/>
<feBlend mode="normal" in="SourceGraphic" in2="effect1_dropShadow_8026_804" result="shape"/>
</filter>
</defs>
</svg>
