<svg width="27" height="27" viewBox="0 0 27 27" fill="none" xmlns="http://www.w3.org/2000/svg">
<mask id="mask0_6141_4303" style="mask-type:luminance" maskUnits="userSpaceOnUse" x="0" y="0" width="27" height="27">
<path d="M27 0H0V27H27V0Z" fill="white" style="fill:white;fill-opacity:1;"/>
</mask>
<g mask="url(#mask0_6141_4303)">
<path fill-rule="evenodd" clip-rule="evenodd" d="M0.835938 22.3877H10.2414C10.2414 22.3877 8.44373 13.5334 14.3958 9.94815C15.6936 9.26693 19.824 6.72281 26.5858 12.1197C26.7997 11.9273 27.0024 11.773 27.0024 11.773C27.0024 11.773 20.8098 5.10352 13.9174 5.84868C10.4538 6.18322 6.19167 9.58825 3.69199 14.0862C1.1923 18.5842 0.835938 22.3877 0.835938 22.3877Z" fill="white" style="fill:white;fill-opacity:1;"/>
<path fill-rule="evenodd" clip-rule="evenodd" d="M0.835938 22.3877H10.2414C10.2414 22.3877 8.44373 13.5334 14.3958 9.94815C15.6936 9.26693 19.824 6.72281 26.5858 12.1197C26.7997 11.9273 27.0024 11.773 27.0024 11.773C27.0024 11.773 20.8098 5.10352 13.9174 5.84868C10.4538 6.18322 6.19167 9.58825 3.69199 14.0862C1.1923 18.5842 0.835938 22.3877 0.835938 22.3877Z" fill="white" style="fill:white;fill-opacity:1;"/>
<path fill-rule="evenodd" clip-rule="evenodd" d="M0.833053 22.3882H10.2385C10.2385 22.3882 8.44084 13.5339 14.393 9.94866C15.6908 9.26744 19.8211 6.72332 26.5829 12.1202C26.7969 11.9278 26.9996 11.7735 26.9996 11.7735C26.9996 11.7735 20.807 5.10403 13.9145 5.8492C10.4386 6.18374 6.17705 9.58876 3.67736 14.0867C1.17768 18.5847 0.833053 22.3882 0.833053 22.3882ZM20.4271 6.5701L20.4752 5.7092C20.3679 5.64472 20.0703 5.48874 19.3202 5.25946L19.2753 6.10657C19.6654 6.24767 20.0463 6.4031 20.4271 6.5701Z" fill="white" style="fill:white;fill-opacity:1;"/>
<path fill-rule="evenodd" clip-rule="evenodd" d="M19.2964 9.29318L19.2489 10.1028C19.6453 10.1159 20.0397 10.1675 20.4274 10.2572L20.4753 9.46019C20.0865 9.37482 19.6925 9.31902 19.2964 9.29318ZM14.8919 5.28356H15.0114L14.7729 4.49982C14.3909 4.50076 14.0094 4.52654 13.6303 4.57698L13.8565 5.33537C14.2006 5.29886 14.5462 5.28157 14.8919 5.28356ZM15.4638 10.013L15.7374 10.8992C16.0722 10.722 16.4185 10.5716 16.7738 10.4495L16.5119 9.60184C16.1546 9.71416 15.8045 9.85151 15.4638 10.013ZM10.059 6.63332L9.52391 5.74652C9.22626 5.91187 8.91686 6.0932 8.59521 6.29768L9.14304 7.19715C9.45244 6.99158 9.75009 6.79923 10.062 6.63222L10.059 6.63332ZM12.4994 12.416L13.0708 13.3409C13.281 13.0163 13.516 12.7112 13.7732 12.4287L13.2371 11.5551C12.9696 11.8195 12.7228 12.1075 12.4994 12.416ZM10.7732 16.5535L11.7376 17.3763C11.7861 16.8692 11.8696 16.3667 11.9874 15.8729L11.1306 15.1404C10.9853 15.6032 10.866 16.0752 10.7732 16.5535ZM5.55944 10.4495L4.71396 9.65309C4.40456 9.97442 4.10691 10.2957 3.83325 10.6171L4.75225 11.4647C5.0051 11.1117 5.27451 10.7728 5.55944 10.4495ZM1.96411 16.1942L0.595307 15.6541C0.369131 16.2052 0.11896 16.8495 0 17.1972L1.36881 17.7374C1.52401 17.302 1.77367 16.6693 1.96411 16.1942ZM10.5925 19.818C10.6092 20.3603 10.6569 20.9009 10.7355 21.4367L12.165 21.9878C12.0439 21.4366 11.9485 20.879 11.879 20.3173L10.5925 19.818Z" fill="white" style="fill:white;fill-opacity:1;"/>
</g>
</svg>
