<svg width="17" height="25" viewBox="0 0 17 25" fill="none" xmlns="http://www.w3.org/2000/svg">
<path fill-rule="evenodd" clip-rule="evenodd" d="M4.58333 9.35374C2.88046 9.35374 1.5 10.7624 1.5 12.5C1.5 14.2376 2.88046 15.6463 4.58333 15.6463H7.75V12.5V9.35374H4.58333ZM12.3333 7.82313L12.4167 7.82313C14.1195 7.82313 15.5 6.4145 15.5 4.67687C15.5 2.93924 14.1195 1.53061 12.4167 1.53061H9.25V7.82313L12.3333 7.82313ZM14.9301 8.58844C16.1768 7.7526 17 6.31283 17 4.67687C17 2.09391 14.948 0 12.4167 0H9.25H8.5H7.75H4.58333C2.05203 0 0 2.09391 0 4.67687C0 6.31283 0.823172 7.7526 2.06992 8.58844C0.823172 9.42427 0 10.864 0 12.5C0 14.136 0.823172 15.5757 2.06992 16.4116C0.823172 17.2474 0 18.6872 0 20.3231C0 22.9115 2.07802 25 4.60405 25C7.1531 25 9.25 22.8924 9.25 20.2806V17.1769V16.4116V15.9604C10.0641 16.7162 11.146 17.1769 12.3333 17.1769H12.4167C14.948 17.1769 17 15.083 17 12.5C17 10.864 16.1768 9.42427 14.9301 8.58844ZM12.4167 9.35374L12.3333 9.35374C10.6305 9.35374 9.25 10.7624 9.25 12.5C9.25 14.2376 10.6305 15.6463 12.3333 15.6463H12.4167C14.1195 15.6463 15.5 14.2376 15.5 12.5C15.5 10.7624 14.1195 9.35374 12.4167 9.35374ZM1.5 20.3231C1.5 18.5855 2.88046 17.1769 4.58333 17.1769H7.75V20.2806C7.75 22.0364 6.33521 23.4694 4.60405 23.4694C2.89591 23.4694 1.5 22.0554 1.5 20.3231ZM7.75 7.82313H4.58333C2.88046 7.82313 1.5 6.4145 1.5 4.67687C1.5 2.93924 2.88046 1.53061 4.58333 1.53061H7.75V7.82313Z" fill="white" style="fill:white;fill-opacity:1;"/>
</svg>
