<svg width="86" height="23" viewBox="0 0 86 23" fill="none" xmlns="http://www.w3.org/2000/svg">
<g clip-path="url(#clip0_6044_2357)">
<path d="M26.7795 11.0572C26.7795 14.8177 29.2284 17.4397 32.6217 17.4397C36.0151 17.4397 38.4639 14.8177 38.4639 11.0572C38.4639 7.29674 36.0151 4.67474 32.6217 4.67474C29.2284 4.67474 26.7795 7.29674 26.7795 11.0572ZM36.225 11.0572C36.225 13.7482 34.7382 15.4905 32.6217 15.4905C30.5052 15.4905 29.0185 13.7482 29.0185 11.0572C29.0185 8.36624 30.5052 6.62399 32.6217 6.62399C34.7382 6.62399 36.225 8.36624 36.225 11.0572Z" fill="white" style="fill:white;fill-opacity:1;"/>
<path d="M44.7688 17.4397C47.3401 17.4397 48.8094 15.3007 48.8094 12.7305C48.8094 10.1602 47.3401 8.02124 44.7688 8.02124C43.5794 8.02124 42.7048 8.48699 42.1276 9.15974V8.19374H40.0286V20.355H42.1276V16.3012C42.7048 16.974 43.5794 17.4397 44.7688 17.4397ZM42.0751 12.4717C42.0751 10.764 43.0547 9.83249 44.349 9.83249C45.8708 9.83249 46.6929 11.0055 46.6929 12.7305C46.6929 14.4555 45.8708 15.6285 44.349 15.6285C43.0547 15.6285 42.0751 14.6797 42.0751 13.0065V12.4717Z" fill="white" style="fill:white;fill-opacity:1;"/>
<path d="M54.4898 17.4397C56.3264 17.4397 57.7782 16.491 58.4254 14.904L56.6237 14.2312C56.3439 15.1627 55.5218 15.6802 54.4898 15.6802C53.1429 15.6802 52.1984 14.7315 52.0409 13.179H58.4778V12.489C58.4778 10.005 57.061 8.02124 54.4023 8.02124C51.7436 8.02124 50.0294 10.074 50.0294 12.7305C50.0294 15.525 51.866 17.4397 54.4898 17.4397ZM54.3848 9.76349C55.7142 9.76349 56.3439 10.626 56.3614 11.6265H52.1459C52.4607 10.4017 53.3003 9.76349 54.3848 9.76349Z" fill="white" style="fill:white;fill-opacity:1;"/>
<path d="M60.0528 17.25H62.1518V11.937C62.1518 10.6432 63.1138 9.95324 64.0584 9.95324C65.2128 9.95324 65.6676 10.764 65.6676 11.8852V17.25H67.7666V11.2815C67.7666 9.33224 66.6121 8.02124 64.6881 8.02124C63.4986 8.02124 62.6765 8.55599 62.1518 9.15974V8.19374H60.0528V17.25Z" fill="white" style="fill:white;fill-opacity:1;"/>
<path d="M73.9141 4.8645L69.1564 17.25H71.3778L72.4448 14.421H77.8672L78.9517 17.25H81.2081L76.4504 4.8645H73.9141ZM75.1385 7.314L77.1325 12.489H73.1795L75.1385 7.314Z" fill="white" style="fill:white;fill-opacity:1;"/>
<path d="M84.8113 4.90045H82.5724V17.286H84.8113V4.90045Z" fill="white" style="fill:white;fill-opacity:1;"/>
<path d="M21.6501 9.41345C22.1793 7.8473 21.9971 6.13164 21.1509 4.70708C19.8784 2.52208 17.3203 1.39795 14.8219 1.92695C13.7104 0.692141 12.1136 -0.0100779 10.4395 -1.53911e-05C7.88577 -0.00576539 5.61989 1.61573 4.83423 4.01205C3.19367 4.34339 1.77758 5.35611 0.94892 6.79145C-0.333063 8.9707 -0.0408085 11.7178 1.6719 13.5865C1.14278 15.1527 1.32499 16.8683 2.17114 18.2929C3.44365 20.4779 6.00179 21.602 8.50016 21.073C9.61087 22.3078 11.2084 23.01 12.8825 22.9993C15.4377 23.0057 17.7043 21.3828 18.49 18.9843C20.1306 18.653 21.5467 17.6403 22.3753 16.2049C23.6558 14.0257 23.3629 11.2808 21.6509 9.41201L21.6501 9.41345ZM12.884 21.4964C11.8614 21.4978 10.871 21.1449 10.0861 20.4987C10.1218 20.48 10.1837 20.4463 10.2238 20.4218L14.8678 17.7768C15.1054 17.6439 15.2512 17.3945 15.2497 17.1249V10.6684L17.2124 11.786C17.2335 11.7961 17.2474 11.8162 17.2503 11.8392V17.186C17.2474 19.5636 15.2949 21.4913 12.884 21.4964ZM3.49394 17.5411C2.98158 16.6685 2.79719 15.6457 2.97284 14.6531C3.00709 14.6733 3.06758 14.7099 3.11058 14.7344L7.75458 17.3794C7.98999 17.5152 8.28151 17.5152 8.51765 17.3794L14.1871 14.1507V16.386C14.1885 16.409 14.1776 16.4313 14.1594 16.4457L9.46511 19.1187C7.37414 20.3061 4.70377 19.6003 3.49467 17.5411H3.49394ZM2.27172 7.54398C2.78189 6.66998 3.58723 6.00155 4.54634 5.65439C4.54634 5.69392 4.54416 5.76364 4.54416 5.81252V11.1032C4.5427 11.372 4.68846 11.6215 4.92533 11.7544L10.5948 14.9823L8.63207 16.1C8.6124 16.1129 8.58762 16.1151 8.56575 16.1057L3.87073 13.4305C1.78414 12.2389 1.06845 9.60608 2.27099 7.5447L2.27172 7.54398ZM18.3974 11.2448L12.728 8.0162L14.6907 6.89927C14.7104 6.88633 14.7352 6.88417 14.757 6.89352L19.452 9.56655C21.5423 10.7575 22.2587 13.3946 21.0511 15.456C20.5402 16.3285 19.7356 16.997 18.7772 17.3449V11.896C18.7793 11.6272 18.6343 11.3785 18.3982 11.2448H18.3974ZM20.3507 8.34539C20.3164 8.32455 20.2559 8.28861 20.2129 8.26417L15.5689 5.61917C15.3335 5.48333 15.042 5.48333 14.8059 5.61917L9.13641 8.8478V6.61248C9.13496 6.58948 9.14589 6.5672 9.16411 6.55283L13.8584 3.88195C15.9494 2.69242 18.6227 3.40039 19.8281 5.4632C20.3375 6.33433 20.5219 7.35423 20.3492 8.34539H20.3507ZM8.06943 12.3294L6.10601 11.2118C6.08487 11.2017 6.07102 11.1816 6.06811 11.1586V5.8118C6.06957 3.4313 8.02789 1.50217 10.4417 1.50361C11.4628 1.50361 12.4511 1.85723 13.236 2.50123C13.2003 2.51992 13.1391 2.5537 13.0982 2.57814L8.45424 5.22314C8.21665 5.35611 8.07089 5.6048 8.07234 5.87433L8.06943 12.328V12.3294ZM9.13568 10.0625L11.661 8.62427L14.1864 10.0618V12.9375L11.661 14.375L9.13568 12.9375V10.0625Z" fill="white" style="fill:white;fill-opacity:1;"/>
</g>
<defs>
<clipPath id="clip0_6044_2357">
<rect width="86" height="23" fill="white" style="fill:white;fill-opacity:1;"/>
</clipPath>
</defs>
</svg>
