<svg width="25" height="23" viewBox="0 0 25 23" fill="none" xmlns="http://www.w3.org/2000/svg">
<path d="M25 11.1293C25 9.47396 22.926 7.90512 19.7462 6.93226C20.48 3.69279 20.1539 1.11548 18.7169 0.290333C18.3688 0.0950104 17.9746 -0.00348649 17.5754 0.00509371V1.14095C17.7772 1.1347 17.9772 1.18029 18.1564 1.27337C18.8494 1.67067 19.15 3.18344 18.9156 5.12917C18.8596 5.60795 18.7678 6.11221 18.6557 6.62666C17.5906 6.37005 16.5096 6.18457 15.4199 6.07146C14.7707 5.17634 14.0626 4.32554 13.3 3.52471C14.9612 1.98137 16.5206 1.13585 17.5805 1.13585V0C16.1792 0 14.3447 0.998323 12.4898 2.73012C10.6349 1.00851 8.80045 0.020375 7.3991 0.020375V1.15623C8.45394 1.15623 10.0183 1.99666 11.6796 3.5298C10.9207 4.32789 10.2175 5.1771 9.57501 6.07146C8.48306 6.18329 7.40017 6.3705 6.33408 6.63175C6.21687 6.1224 6.13025 5.62832 6.06909 5.15462C5.82959 3.20891 6.12516 1.69614 6.81308 1.29375C6.96596 1.20207 7.1647 1.16132 7.3991 1.16132V0.0254687C6.99672 0.0169166 6.59929 0.115354 6.24745 0.310708C4.81553 1.13585 4.4945 3.70807 5.23339 6.93735C2.0638 7.91531 0 9.47906 0 11.1293C0 12.7796 2.07399 14.3535 5.25377 15.3264C4.51998 18.5658 4.8461 21.1431 6.28312 21.9683C6.61435 22.1619 7.00164 22.2535 7.42968 22.2535C8.83102 22.2535 10.6655 21.2552 12.5204 19.5234C14.3752 21.245 16.2098 22.2331 17.611 22.2331C18.0134 22.2417 18.4109 22.1432 18.7627 21.9479C20.1947 21.1228 20.5157 18.5505 19.7768 15.3212C22.9362 14.3484 25 12.7796 25 11.1293ZM18.3653 7.73195C18.1768 8.38901 17.9423 9.06645 17.6773 9.74385C17.4684 9.3364 17.2493 8.92892 17.0098 8.52144C16.7703 8.11396 16.5257 7.71667 16.276 7.32956C16.9996 7.43652 17.6977 7.56895 18.3653 7.73195ZM16.0314 13.1566C15.634 13.8442 15.2262 14.4961 14.8033 15.1023C14.0441 15.1684 13.2746 15.2042 12.5 15.2042C11.7254 15.2042 10.961 15.1684 10.2069 15.1074C9.78394 14.5013 9.37288 13.856 8.97371 13.1718C8.58643 12.5063 8.23311 11.8305 7.91378 11.1446C8.22972 10.4621 8.58643 9.77958 8.96861 9.11228C9.36608 8.42467 9.77375 7.7727 10.1967 7.16656C10.9559 7.10035 11.7254 7.0647 12.5 7.0647C13.2746 7.0647 14.039 7.10035 14.7931 7.16147C15.216 7.7676 15.6271 8.41278 16.0262 9.09701C16.4135 9.76427 16.7669 10.44 17.0862 11.1243C16.7652 11.8068 16.4135 12.4893 16.0314 13.1566ZM17.6773 12.4944C17.9525 13.1769 18.1869 13.8595 18.3805 14.5216C17.713 14.6846 17.0098 14.8221 16.281 14.9291C16.5307 14.5369 16.7805 14.1345 17.0149 13.7219C17.2493 13.3094 17.4684 12.9019 17.6773 12.4944ZM12.5102 17.9292C12.0103 17.4105 11.5375 16.8665 11.0935 16.2993C11.5522 16.3196 12.021 16.3349 12.4949 16.3349C12.9689 16.3349 13.4478 16.3247 13.9116 16.2993C13.4742 16.8674 13.0064 17.4115 12.5102 17.9292ZM8.71892 14.9291C7.99531 14.8221 7.29719 14.6897 6.62964 14.5267C6.81818 13.8696 7.05259 13.1922 7.31757 12.5148C7.5265 12.9222 7.74561 13.3297 7.98512 13.7372C8.22462 14.1447 8.46922 14.542 8.71892 14.9291ZM12.4847 4.32948C12.9846 4.84815 13.4574 5.39218 13.9014 5.95941C13.4427 5.93903 12.974 5.92375 12.5 5.92375C12.026 5.92375 11.5471 5.93394 11.0833 5.95941C11.5207 5.39124 11.9885 4.84714 12.4847 4.32948ZM8.71382 7.32956C8.46412 7.72176 8.21443 8.12415 7.98002 8.53672C7.74561 8.94929 7.5265 9.35168 7.31757 9.75917C7.0424 9.07664 6.80799 8.3941 6.61435 7.73195C7.2819 7.57404 7.98512 7.43652 8.71382 7.32956ZM4.10212 13.7067C2.29821 12.9375 1.13127 11.929 1.13127 11.1293C1.13127 10.3296 2.29821 9.31602 4.10212 8.552C4.54036 8.36354 5.01936 8.19546 5.51366 8.03755C5.82541 9.09621 6.20847 10.1326 6.66021 11.1395C6.21333 12.1415 5.83536 13.1727 5.52895 14.2261C5.02446 14.0682 4.54546 13.8951 4.10212 13.7067ZM6.84366 20.9852C6.15063 20.5879 5.84998 19.0752 6.08439 17.1295C6.14044 16.6506 6.23217 16.1465 6.34427 15.632C7.40936 15.8885 8.49036 16.0741 9.5801 16.1872C10.2292 17.0823 10.9374 17.9331 11.7 18.734C10.0387 20.2773 8.47942 21.1228 7.41949 21.1228C7.21915 21.125 7.02134 21.0778 6.84366 20.9852ZM18.9309 17.104C19.1704 19.0497 18.8749 20.5625 18.1869 20.9649C18.0341 21.0566 17.8353 21.0973 17.6009 21.0973C16.546 21.0973 14.9817 20.2569 13.3204 18.7237C14.0793 17.9256 14.7825 17.0765 15.425 16.1821C16.517 16.0702 17.5998 15.883 18.6659 15.6218C18.7803 16.1108 18.8687 16.6056 18.9309 17.104ZM20.8928 13.7067C20.4546 13.8951 19.9755 14.0631 19.4812 14.221C19.1695 13.1624 18.7865 12.126 18.3347 11.1192C18.7816 10.1172 19.1596 9.08586 19.4659 8.03246C19.9704 8.19036 20.4495 8.36354 20.8979 8.552C22.7018 9.32111 23.8687 10.3296 23.8687 11.1293C23.8687 11.929 22.6967 12.9426 20.8928 13.7067Z" fill="white" style="fill:white;fill-opacity:1;"/>
<path d="M12.4967 13.4578C13.7829 13.4578 14.8256 12.4158 14.8256 11.1301C14.8256 9.84462 13.7829 8.80243 12.4967 8.80243C11.2106 8.80243 10.168 9.84462 10.168 11.1301C10.168 12.4158 11.2106 13.4578 12.4967 13.4578Z" fill="white" style="fill:white;fill-opacity:1;"/>
</svg>
