<svg width="256" height="256" viewBox="0 0 256 256" fill="none" xmlns="http://www.w3.org/2000/svg">
<rect width="256" height="256" fill="white"/>
<path d="M32 129.261C32 103.628 41.8168 87.9215 55.7784 81.7042L61.5594 90.5393C51.5245 97.1929 44.8709 108.646 44.8709 129.261C44.8709 149.767 51.5245 161.22 61.5594 167.874L55.7784 176.709C41.8168 170.492 32 154.676 32 129.261Z" fill="#FF2D55"/>
<path d="M106.73 152.085H94.967V124.21C94.967 120.453 94.0444 117.653 92.1992 115.807C90.4199 113.896 88.0475 112.941 85.082 112.941C82.0506 112.941 79.6453 113.863 77.866 115.708C76.0867 117.554 75.1971 120.387 75.1971 124.21V152.085H63.434V124.21C63.434 116.895 65.3121 111.359 69.0684 107.603C72.8247 103.847 77.7672 101.968 83.8958 101.968C91.4084 101.968 97.0099 104.835 100.7 110.568H100.898C104.457 104.835 110.058 101.968 117.702 101.968C123.831 101.968 128.774 103.847 132.53 107.603C136.286 111.359 138.164 116.895 138.164 124.21V152.085H126.401V124.21C126.401 120.387 125.512 117.554 123.732 115.708C121.953 113.863 119.548 112.941 116.516 112.941C113.551 112.941 111.178 113.896 109.399 115.807C107.62 117.653 106.73 120.453 106.73 124.21V152.085Z" fill="#FF2D55"/>
<path d="M154.229 152.085H140.39L158.381 127.175L141.181 103.253H155.415L167.079 120.75H167.277L178.941 103.253H192.879L175.482 127.175L193.67 152.085H179.435L166.882 133.403H166.684L154.229 152.085Z" fill="#FF2D55"/>
<path d="M200.331 175.005L194.441 166.17C204.475 159.516 211.238 148.063 211.238 127.557C211.238 106.942 204.585 95.4887 194.441 88.8351L200.331 80C207.202 83.1632 212.874 88.617 217.346 96.5795C221.818 104.433 224 114.795 224 127.557C224 140.319 221.818 150.572 217.346 158.534C212.874 166.388 207.202 171.842 200.331 175.005Z" fill="#FF2D55"/>
</svg>
