<svg preserveAspectRatio="none" width="100%" height="100%" overflow="visible" style="display: block;" viewBox="0 0 39 16" fill="none" xmlns="http://www.w3.org/2000/svg">
<g id="n8n-text 1">
<path id="Vector" fill-rule="evenodd" clip-rule="evenodd" d="M1.3 14.4447H4.069V8.43133C4.069 6.45667 5.2377 5.59133 6.5572 5.59133C7.85525 5.59133 8.87185 6.47933 8.87185 8.298V14.4447H11.6409V7.72133C11.6409 4.81467 9.99635 3.128 7.42235 3.128C5.79995 3.128 4.89125 3.79467 4.2419 4.65933H4.069L3.8311 3.35067H1.3V14.4447ZM22.2398 6.96667V6.834C23.192 6.346 24.1443 5.50267 24.1443 3.83867C24.1436 1.442 22.217 0 19.5566 0C16.8305 0 14.8831 1.53133 14.8831 3.88267C14.8831 5.48067 15.7924 6.346 16.7876 6.834V6.96733C16.0695 7.23397 15.4503 7.72341 15.0161 8.36764C14.5818 9.01187 14.354 9.77886 14.3644 10.562C14.365 12.98 16.3118 14.6667 19.5351 14.6667C22.7591 14.6667 24.6409 12.98 24.6409 10.562C24.6409 8.56467 23.3428 7.38867 22.2398 6.96733V6.96667ZM19.5358 2.04133C20.6174 2.04133 21.4175 2.75133 21.4175 3.94933C21.4175 5.148 20.5953 5.858 19.5351 5.858C18.4756 5.858 17.5884 5.148 17.5884 3.94933C17.5884 2.72933 18.4327 2.04133 19.5358 2.04133ZM19.5358 12.5367C18.2806 12.5367 17.264 11.7153 17.264 10.3173C17.264 9.05267 18.1077 8.09867 19.513 8.09867C20.8988 8.09867 21.7425 9.03067 21.7425 10.362C21.7425 11.7153 20.7695 12.5367 19.5358 12.5367ZM27.4541 14.4447H30.2231V8.43133C30.2231 6.45667 31.3911 5.59133 32.7113 5.59133C34.0093 5.59133 35.0253 6.47933 35.0253 8.298V14.4447H37.7949V7.72133C37.7949 4.81467 36.1504 3.128 33.5764 3.128C31.954 3.128 31.0453 3.79467 30.396 4.65933H30.2231L29.9852 3.35067H27.4541V14.4447Z" fill="var(--fill-0, white)" style="fill:white;fill-opacity:1;"/>
</g>
</svg>
