<svg width="17" height="29" viewBox="0 0 17 29" fill="none" xmlns="http://www.w3.org/2000/svg">
<path d="M8.16406 0.00156784C8.47281 -0.0156821 8.78483 0.109741 8.99512 0.367779C11.7125 3.70476 15.0512 8.91934 16.0391 13.6412C16.535 16.0121 16.4683 18.4088 15.2578 20.3766C14.0312 22.3702 11.7701 23.7005 8.37109 24.2223C8.30122 24.2329 8.23195 24.2348 8.16406 24.2311C8.09659 24.2347 8.02744 24.2329 7.95801 24.2223C4.55899 23.7005 2.29778 22.3703 1.07129 20.3766C-0.139202 18.4088 -0.205844 16.0121 0.290039 13.6412C1.27782 8.9195 4.61664 3.70478 7.33398 0.367779C7.5439 0.110198 7.85585 -0.0151461 8.16406 0.00156784ZM8.16406 2.54551C5.69996 5.75953 3.05808 10.1791 2.24805 14.0514C1.80538 16.1681 1.9398 17.9719 2.77441 19.3287C3.58444 20.6454 5.18822 21.7529 8.16406 22.2281C11.1407 21.7531 12.7445 20.6455 13.5547 19.3287C14.3893 17.9719 14.5238 16.1681 14.0811 14.0514C13.271 10.1787 10.6283 5.7596 8.16406 2.54551Z" fill="#FAFBF7" style="fill:#FAFBF7;fill:color(display-p3 0.9804 0.9843 0.9686);fill-opacity:1;"/>
<path d="M8.01953 14.8267L8.01953 27.2161" stroke="#FAFBF7" style="stroke:#FAFBF7;stroke:color(display-p3 0.9804 0.9843 0.9686);stroke-opacity:1;" stroke-width="2" stroke-linecap="round"/>
</svg>
