<svg preserveAspectRatio="none" width="100%" height="100%" overflow="visible" style="display: block;" viewBox="0 0 88 24" fill="none" xmlns="http://www.w3.org/2000/svg">
<g id="OpenAI_Logo 1" clip-path="url(#clip0_0_34)">
<path id="Vector" d="M27.4023 11.538C27.4023 15.462 29.9081 18.198 33.3803 18.198C36.8526 18.198 39.3584 15.462 39.3584 11.538C39.3584 7.614 36.8526 4.878 33.3803 4.878C29.9081 4.878 27.4023 7.614 27.4023 11.538ZM37.0674 11.538C37.0674 14.346 35.546 16.164 33.3803 16.164C31.2146 16.164 29.6933 14.346 29.6933 11.538C29.6933 8.73 31.2146 6.912 33.3803 6.912C35.546 6.912 37.0674 8.73 37.0674 11.538Z" fill="var(--fill-0, white)" style="fill:white;fill-opacity:1;"/>
<path id="Vector_2" d="M45.81 18.198C48.441 18.198 49.9445 15.966 49.9445 13.284C49.9445 10.602 48.441 8.37 45.81 8.37C44.5929 8.37 43.698 8.856 43.1073 9.558V8.55H40.9595V21.24H43.1073V17.01C43.698 17.712 44.5929 18.198 45.81 18.198ZM43.0536 13.014C43.0536 11.232 44.0559 10.26 45.3804 10.26C46.9376 10.26 47.7788 11.484 47.7788 13.284C47.7788 15.084 46.9376 16.308 45.3804 16.308C44.0559 16.308 43.0536 15.318 43.0536 13.572V13.014Z" fill="var(--fill-0, white)" style="fill:white;fill-opacity:1;"/>
<path id="Vector_3" d="M55.7569 18.198C57.6363 18.198 59.1218 17.208 59.7841 15.552L57.9405 14.85C57.6542 15.822 56.8129 16.362 55.7569 16.362C54.3788 16.362 53.4123 15.372 53.2512 13.752H59.8378V13.032C59.8378 10.44 58.388 8.37 55.6675 8.37C52.9469 8.37 51.1929 10.512 51.1929 13.284C51.1929 16.2 53.0722 18.198 55.7569 18.198ZM55.6496 10.188C57.0098 10.188 57.6542 11.088 57.6721 12.132H53.3586C53.6807 10.854 54.5399 10.188 55.6496 10.188Z" fill="var(--fill-0, white)" style="fill:white;fill-opacity:1;"/>
<path id="Vector_4" d="M61.4494 18H63.5972V12.456C63.5972 11.106 64.5816 10.386 65.5481 10.386C66.7294 10.386 67.1947 11.232 67.1947 12.402V18H69.3425V11.772C69.3425 9.738 68.1612 8.37 66.1924 8.37C64.9753 8.37 64.1341 8.928 63.5972 9.558V8.55H61.4494V18Z" fill="var(--fill-0, white)" style="fill:white;fill-opacity:1;"/>
<path id="Vector_5" d="M75.633 5.076L70.7647 18H73.0378L74.1296 15.048H79.678L80.7877 18H83.0966L78.2283 5.076H75.633ZM76.8859 7.632L78.9263 13.032H74.8813L76.8859 7.632Z" fill="var(--fill-0, white)" style="fill:white;fill-opacity:1;"/>
<path id="Vector_6" d="M86.7837 5.1135H84.4927V18.0375H86.7837V5.1135Z" fill="var(--fill-0, white)" style="fill:white;fill-opacity:1;"/>
<path id="Vector_7" d="M22.1536 9.82275C22.6951 8.1885 22.5086 6.39825 21.6428 4.91175C20.3407 2.63175 17.7231 1.45875 15.1666 2.01075C14.0293 0.72225 12.3953 -0.0105 10.6823 0C8.06915 -0.006 5.75058 1.686 4.94664 4.1865C3.26793 4.53225 1.81892 5.589 0.970983 7.08675C-0.340814 9.36075 -0.0417627 12.2272 1.71078 14.1772C1.16936 15.8115 1.3558 17.6017 2.22163 19.0882C3.52373 21.3682 6.14136 22.5412 8.69783 21.9892C9.83437 23.2777 11.4691 24.0105 13.1821 23.9992C15.7967 24.006 18.1161 22.3125 18.92 19.8098C20.5987 19.464 22.0477 18.4072 22.8957 16.9095C24.206 14.6355 23.9062 11.7712 22.1544 9.82125L22.1536 9.82275ZM13.1836 22.431C12.1373 22.4325 11.1238 22.0643 10.3206 21.39C10.3572 21.3705 10.4205 21.3352 10.4616 21.3097L15.2136 18.5497C15.4567 18.411 15.6058 18.1507 15.6043 17.8695V11.1322L17.6127 12.2985C17.6343 12.309 17.6485 12.33 17.6515 12.354V17.9332C17.6485 20.4142 15.6506 22.4257 13.1836 22.431ZM3.57519 18.3037C3.05092 17.3932 2.86224 16.326 3.04197 15.2902C3.07702 15.3112 3.13892 15.3495 3.18292 15.375L7.93492 18.135C8.1758 18.2767 8.4741 18.2767 8.71573 18.135L14.517 14.766V17.0985C14.5185 17.1225 14.5073 17.1457 14.4887 17.1607L9.68522 19.95C7.54563 21.189 4.81315 20.4525 3.57593 18.3037H3.57519ZM2.32454 7.872C2.84658 6.96 3.67064 6.2625 4.65207 5.90025C4.65207 5.9415 4.64983 6.01425 4.64983 6.06525V11.586C4.64834 11.8665 4.79749 12.1267 5.03986 12.2655L10.8412 15.6337L8.83281 16.8C8.81268 16.8135 8.78732 16.8157 8.76495 16.806L3.96075 14.0145C1.82563 12.771 1.09329 10.0237 2.3238 7.87275L2.32454 7.872ZM18.8253 11.7337L13.024 8.36475L15.0323 7.19925C15.0525 7.18575 15.0778 7.1835 15.1002 7.19325L19.9044 9.9825C22.0433 11.2252 22.7763 13.977 21.5406 16.128C21.0178 17.0385 20.1945 17.736 19.2138 18.099V12.4132C19.2161 12.1327 19.0677 11.8732 18.826 11.7337H18.8253ZM20.8239 8.70825C20.7889 8.6865 20.727 8.649 20.683 8.6235L15.931 5.8635C15.6901 5.72175 15.3918 5.72175 15.1502 5.8635L9.34888 9.2325V6.9C9.34739 6.876 9.35858 6.85275 9.37722 6.83775L14.1807 4.05075C16.3203 2.8095 19.0557 3.54825 20.2892 5.70075C20.8105 6.60975 20.9992 7.674 20.8224 8.70825H20.8239ZM8.25709 12.8655L6.248 11.6992C6.22637 11.6887 6.2122 11.6677 6.20922 11.6437V6.0645C6.21071 3.5805 8.21458 1.5675 10.6845 1.569C11.7294 1.569 12.7406 1.938 13.5438 2.61C13.5073 2.6295 13.4446 2.66475 13.4028 2.69025L8.65085 5.45025C8.40773 5.589 8.25858 5.8485 8.26007 6.12975L8.25709 12.864V12.8655ZM9.34814 10.5L11.9322 8.99925L14.5163 10.4992V13.5L11.9322 15L9.34814 13.5V10.5Z" fill="var(--fill-0, white)" style="fill:white;fill-opacity:1;"/>
</g>
<defs>
<clipPath id="clip0_0_34">
<rect width="88" height="24" fill="white" style="fill:white;fill-opacity:1;"/>
</clipPath>
</defs>
</svg>
